# xmcd CD database file
#
# Track frame offsets:
#	150
#	12901
#	27468
#	39618
#	50249
#	62250
#	79801
#	93152
#	105235
#	118586
#	130624
#	144124
#	156797
#
# Disc length: 2249 seconds
#
# Revision: 0
# Processed by: cddbd v1.5.2PL0 Copyright (c) Steve Scherf et al.
# Submitted via: CDex 1.79
#
DISCID=9a08c70d
DTITLE=Carleen Still - The Latest Addition
DYEAR=2012
DGENRE=Country
TTITLE0=Sing Me Back Home
TTITLE1=Heres Some Love
TTITLE2=Honky Tonk Angels
TTITLE3=Once A Day
TTITLE4=Wrong Road Again
TTITLE5=Nobody
TTITLE6=Why Have You Left The one
TTITLE7=Stand By Your Man
TTITLE8=Rose Garden
TTITLE9=Strong Enough To Bend
TTITLE10=57 Chevrolet
TTITLE11=I Fall To Pieces
TTITLE12=Jenny Lou - Pat Tunnicliffe
EXTD=YEAR: 2012
EXTT0=
EXTT1=
EXTT2=
EXTT3=
EXTT4=
EXTT5=
EXTT6=
EXTT7=
EXTT8=
EXTT9=
EXTT10=
EXTT11=
EXTT12=
PLAYORDER=
